<svg width="120" height="120" viewBox="0 0 120 120" xmlns="http://www.w3.org/2000/svg">
  <!-- Transparent Background Container -->
  <rect width="120" height="120" fill="none" />
  
  <!-- Light Beige Circle -->
  <circle cx="60" cy="60" r="50" fill="#F6EFE3" />
  
  <!-- Bell Body (Solid) -->
  <path d="M 60 38 C 48 38 48 53 46 61 C 45 66 41 68 41 68 L 79 68 C 79 68 75 66 74 61 C 72 53 72 38 60 38 Z" fill="#AD8B52" />
  
  <!-- Bell Top Nub -->
  <path d="M 57 38 C 57 34 63 34 63 38" fill="none" stroke="#AD8B52" stroke-width="3.5" />
  
  <!-- Bell Clapper -->
  <path d="M 54 68 A 6 6 0 0 0 66 68" fill="#AD8B52" />
  
  <!-- Left Sound Wave -->
  <path d="M 38 44 A 16 16 0 0 0 30 54" fill="none" stroke="#AD8B52" stroke-width="3.5" stroke-linecap="round" />
  
  <!-- Right Sound Wave -->
  <path d="M 82 44 A 16 16 0 0 1 90 54" fill="none" stroke="#AD8B52" stroke-width="3.5" stroke-linecap="round" />
</svg>
